<svg xmlns="http://www.w3.org/2000/svg" data-name="Layer 1" viewBox="0 0 100 125" x="0px" y="0px"><path d="M52.78,11.63A1.39,1.39,0,0,1,54.17,13v.18a.46.46,0,0,1,.43.46V16a.46.46,0,0,1-.43.46V32.37c0,5,5.81,5,5.81,14.34v38.7a3,3,0,0,1-3,3H43a3,3,0,0,1-3-3V46.71c0-9.31,5.81-9.31,5.81-14.34V16.46A.46.46,0,0,1,45.4,16V13.66a.46.46,0,0,1,.43-.46V13a1.39,1.39,0,0,1,1.39-1.39h5.56m0-3H47.22a4.39,4.39,0,0,0-4.16,3,3.44,3.44,0,0,0-.66,2V16a3.52,3.52,0,0,0,.43,1.68V32.37c0,1-.39,1.49-1.53,2.84-1.81,2.12-4.28,5-4.28,11.5v38.7a6,6,0,0,0,6,6H57a6,6,0,0,0,6-6V46.71c0-6.46-2.47-9.38-4.28-11.5-1.14-1.35-1.53-1.86-1.53-2.84V17.68A3.52,3.52,0,0,0,57.6,16V13.66a3.42,3.42,0,0,0-.66-2,4.39,4.39,0,0,0-4.16-3Z"/><text x="0" y="115" fill="#000000" font-size="5px" font-weight="bold" font-family="'Helvetica Neue', Helvetica, Arial-Unicode, Arial, Sans-serif">Created by Tyler Gobberdiel</text><text x="0" y="120" fill="#000000" font-size="5px" font-weight="bold" font-family="'Helvetica Neue', Helvetica, Arial-Unicode, Arial, Sans-serif">from the Noun Project</text></svg>